<?xml version="1.0" encoding="iso-8859-1"?>
<!-- Uploaded to: SVG Repo, www.svgrepo.com, Generator: SVG Repo Mixer Tools -->
<svg fill="#000000" height="800px" width="800px" version="1.1" id="Layer_1" xmlns="http://www.w3.org/2000/svg" xmlns:xlink="http://www.w3.org/1999/xlink" 
	 viewBox="0 0 496 496" xml:space="preserve">
<g>
	<g>
		<g>
			<polygon points="32,376 128,376 128,360 48,360 48,328 160,328 160,360 144,360 144,376 176,376 176,312 32,312 			"/>
			<polygon points="64,440 80,440 80,456 96,456 96,424 48,424 48,456 64,456 			"/>
			<polygon points="128,440 144,440 144,456 160,456 160,424 112,424 112,456 128,456 			"/>
			<path d="M480,88V0H304v88h-16v176c0,22.056,17.944,40,40,40h40v96c0,26.472-21.528,48-48,48s-48-21.528-48-48V96
				c0-52.936-43.064-96-96-96c-52.936,0-96,43.064-96,96v96H40c-22.056,0-40,17.944-40,40v176h16v88h176v-88h16V232
				c0-22.056-17.944-40-40-40h-40V96c0-26.472,21.528-48,48-48s48,21.528,48,48v304c0,52.936,43.064,96,96,96
				c52.936,0,96-43.064,96-96v-96h40c22.056,0,40-17.944,40-40V88H480z M320,16h144v72H320V16z M176,480H32v-72h144V480z M168,208
				c13.232,0,24,10.768,24,24v160H16V232c0-13.232,10.768-24,24-24H168z M400,400c0,44.112-35.888,80-80,80s-80-35.888-80-80V96
				c0-35.288-28.712-64-64-64c-35.288,0-64,28.712-64,64v96H96V96c0-44.112,35.888-80,80-80s80,35.888,80,80v304
				c0,35.288,28.712,64,64,64c35.288,0,64-28.712,64-64v-96h16V400z M480,264c0,13.232-10.768,24-24,24H328
				c-13.232,0-24-10.768-24-24V104h176V264z"/>
			<polygon points="416,168 336,168 336,136 448,136 448,168 432,168 432,184 464,184 464,120 320,120 320,184 416,184 			"/>
			<polygon points="432,56 416,56 416,40 400,40 400,72 448,72 448,40 432,40 			"/>
			<polygon points="368,56 352,56 352,40 336,40 336,72 384,72 384,40 368,40 			"/>
		</g>
	</g>
</g>
</svg>