<?xml version="1.0" encoding="iso-8859-1"?>
<!-- Uploaded to: SVG Repo, www.svgrepo.com, Generator: SVG Repo Mixer Tools -->
<svg fill="#000000" height="800px" width="800px" version="1.1" id="Layer_1" xmlns="http://www.w3.org/2000/svg" xmlns:xlink="http://www.w3.org/1999/xlink" 
	 viewBox="0 0 512.001 512.001" xml:space="preserve">
<g>
	<g>
		<g>
			<path d="M443.734,221.867h-102.4c-4.71,0-8.533,3.823-8.533,8.533v34.133c0,4.71,3.823,8.533,8.533,8.533h102.4
				c4.71,0,8.533-3.823,8.533-8.533V230.4C452.268,225.69,448.445,221.867,443.734,221.867z M375.468,256h-17.067
				c-4.719,0-8.533-3.814-8.533-8.533s3.814-8.533,8.533-8.533h17.067c4.719,0,8.533,3.814,8.533,8.533S380.186,256,375.468,256z
				 M426.668,256h-17.067c-4.719,0-8.533-3.814-8.533-8.533s3.814-8.533,8.533-8.533h17.067c4.719,0,8.533,3.814,8.533,8.533
				S431.386,256,426.668,256z"/>
			<path d="M492.007,162.799l-32.102-64.213c-1.451-2.893-4.403-4.719-7.637-4.719H264.534c-3.234,0-6.187,1.826-7.637,4.719
				l-31.77,63.548h-45.926c-14.114,0-25.6,11.486-25.6,25.6v2.185l-68.267,20.48v125.338l68.267,20.48v2.185
				c0,14.114,11.486,25.6,25.6,25.6h17.067v25.6c0,4.719,3.814,8.533,8.533,8.533h273.067c4.719,0,8.533-3.814,8.533-8.533V384
				c14.114,0,25.6-11.486,25.6-25.6V187.734C512.001,175.548,503.425,165.368,492.007,162.799z M341.334,332.8
				c0-4.71,3.823-8.533,8.533-8.533s8.533,3.823,8.533,8.533s-3.823,8.533-8.533,8.533S341.334,337.511,341.334,332.8z
				 M384.001,332.8c0-4.71,3.823-8.533,8.533-8.533c4.71,0,8.533,3.823,8.533,8.533s-3.823,8.533-8.533,8.533
				C387.824,341.334,384.001,337.511,384.001,332.8z M426.668,332.8c0-4.71,3.823-8.533,8.533-8.533s8.533,3.823,8.533,8.533
				s-3.823,8.533-8.533,8.533S426.668,337.511,426.668,332.8z M469.334,264.534c0,14.114-11.486,25.6-25.6,25.6h-102.4
				c-14.114,0-25.6-11.486-25.6-25.6V230.4c0-14.114,11.486-25.6,25.6-25.6h102.4c14.114,0,25.6,11.486,25.6,25.6V264.534z
				 M286.874,162.134l8.533-17.067h125.986l8.533,17.067H286.874z M449.008,162.134l-14.703-29.414
				c-1.451-2.893-4.403-4.719-7.637-4.719H290.134c-3.234,0-6.187,1.826-7.637,4.719l-14.703,29.414h-23.586l25.6-51.2h177.186
				l25.6,51.2H449.008z"/>
			<path d="M5.009,154.367C1.963,155.749,0,158.787,0,162.132v221.867c0,3.354,1.963,6.383,5.009,7.765
				c1.126,0.521,2.33,0.768,3.524,0.768c2.022,0,4.036-0.725,5.615-2.108l54.118-47.351V203.058l-54.118-47.352
				C11.639,153.513,8.047,152.976,5.009,154.367z"/>
		</g>
	</g>
</g>
</svg>